<svg width="256" height="256" viewBox="0 0 256 256" fill="none" xmlns="http://www.w3.org/2000/svg">
<path fill-rule="evenodd" clip-rule="evenodd" d="M101.42 189.587C97.3399 188.91 96.4607 188.309 96.2973 186.085C96.214 184.953 96.5492 183.177 97.1189 181.733C97.6482 180.392 98.0813 178.972 98.0813 178.577C98.0813 178.183 98.5859 177.188 99.2026 176.367C99.8193 175.546 100.906 173.713 101.616 172.294C102.327 170.876 103.953 168.168 105.23 166.277C108.245 161.812 108.88 160.212 108.88 157.089C108.88 152.379 108.302 151.86 100.898 149.923C96.0594 148.656 93.1889 148.669 91.3973 149.966C85.8809 153.958 84.0069 155.532 82.6456 157.318C81.774 158.461 80.1894 159.989 79.1241 160.713C72.8622 164.97 59.8756 170.011 46.9029 173.223C45.9991 173.446 43.9431 174.107 42.334 174.692C39.4804 175.728 39.3467 175.735 36.8932 174.962C35.5098 174.527 33.9496 174.17 33.4261 174.17C32.0188 174.17 30 172.391 30 171.151C30 169.388 31.7946 167.636 35.3421 165.937C37.1814 165.056 39.5314 163.699 40.5643 162.921C41.5973 162.143 43.5073 161.002 44.8089 160.384C46.1104 159.767 47.4478 158.933 47.781 158.532C48.1141 158.131 49.101 157.568 49.9741 157.28C50.9339 156.964 52.3547 155.795 53.5673 154.325C58.267 148.626 63.3379 143.435 66.6339 140.949C68.5767 139.483 71.6925 136.679 73.5581 134.717L76.9499 131.151L79.1072 124.403C80.2937 120.692 81.5882 116.983 81.9839 116.161C83.4445 113.125 81.6267 111.086 76.969 110.535C75.6768 110.382 74.0089 110.505 73.1207 110.819C72.2585 111.123 69.9423 111.656 67.9736 112.003C65.6911 112.406 62.2707 113.587 58.5337 115.263C55.147 116.782 51.7615 117.976 50.513 118.093C49.3248 118.204 47.3807 118.865 46.1927 119.56C44.371 120.626 43.6935 120.778 41.867 120.528C39.726 120.235 36.4246 118.613 34.9293 117.119C33.9175 116.108 34.3476 114.423 36.1368 112.387C36.8945 111.525 37.8416 110.037 38.2415 109.079C39.5831 105.866 43.8549 102.483 48.3968 101.036C49.3476 100.733 50.9085 99.8639 51.8655 99.1043C52.8644 98.3113 54.1704 97.7231 54.9321 97.7231C55.6617 97.7231 57.2701 97.3298 58.5063 96.8491C59.7425 96.3685 63.2894 95.3933 66.3883 94.682C69.4871 93.9708 73.079 93.0125 74.3702 92.5525C79.0913 90.8704 82.4085 90.0998 86.3275 89.7745C88.5311 89.5917 90.7956 89.1948 91.3597 88.8925C91.9237 88.5903 93.2209 88.343 94.2422 88.343C97.3597 88.343 98.1356 87.311 98.5663 82.5917C99.0296 77.5141 100.161 75.3637 103.625 72.9793C106.09 71.2827 106.33 71.2191 110.862 71.0618C116.144 70.8784 118.481 71.4943 120.909 73.7094L122.352 75.0258L121.772 78.4342C121.345 80.9429 120.827 82.2983 119.808 83.5686C117.641 86.2701 117.222 87.2626 117.798 88.3375C118.444 89.5426 119.174 89.6733 126.488 89.8944C131.681 90.0513 133.101 90.268 136.005 91.3468L139.419 92.6148L143.518 91.3486C145.855 90.6265 149.23 89.9854 151.372 89.8566C157.756 89.4729 159.801 87.759 158.76 83.665C158.282 81.7817 158.677 78.3207 159.558 76.6756C160.237 75.4084 163.095 73.0127 165.218 71.9308C166.68 71.1858 167.972 70.9921 171.426 71.0002C176.241 71.0116 178.664 71.7879 180.667 73.9603C181.703 75.0845 181.765 75.4224 181.465 78.3473C181.227 80.6618 180.823 81.9307 179.966 83.0538C178.374 85.1381 177.428 87.5244 177.732 88.6856C178.067 89.9657 182.577 91.4283 187.526 91.862C191.298 92.1926 195.169 93.1171 199.968 94.8342C205.809 96.9238 217.443 99.2508 223.914 99.624C234.302 100.223 238 101.896 238 105.996C238 108.56 237.267 110.142 235.762 110.827C232.529 112.298 225.283 112.831 211.794 112.591C204.483 112.461 197.82 112.542 196.987 112.772C196.154 113.001 194.286 114.246 192.835 115.537C189.837 118.207 188.419 121.103 185.817 129.877C184.385 134.705 184.295 135.439 184.301 142.278C184.306 148.773 184.424 149.848 185.404 152.362C187.4 157.48 186.723 161.227 182.554 168.136C181.521 169.847 180.232 172.878 179.69 174.872C179.034 177.281 178.174 179.148 177.126 180.438C176.259 181.505 173.37 182.21 173 183C172.63 183.79 169.42 184.946 168.275 186C165.523 188.534 161.879 188.42 157.598 187.616C151.753 186.518 150.911 185.599 152 181.5C152.925 178.016 161.117 175.127 164.791 169.5L168.275 161.306L168.44 157.441C168.598 153.724 168.555 153.531 167.303 152.372C166.587 151.709 165.456 151.057 164.791 150.922C164.125 150.787 162.396 150.346 160.949 149.942C158.071 149.137 157.206 149.348 154.894 151.416C154.248 151.993 152.875 153.02 151.842 153.697C150.809 154.375 149.119 156.018 148.086 157.349C145.79 160.307 140.033 163.868 133.409 166.427C126.71 169.015 122.619 170.909 121.869 171.77C121.506 172.187 120.321 174.515 119.237 176.942C113.968 188.735 110.618 191.113 101.42 189.587ZM128.579 144.101C130.377 143.006 132.365 141.206 136.807 136.65C145.706 127.524 147.618 124.511 148.653 117.983C148.962 116.033 147.747 112.768 146.157 111.278C145.091 110.277 144.572 110.162 141.51 110.244C138.722 110.319 137.525 110.608 135.244 111.758C133.694 112.539 132.292 113.395 132.128 113.659C131.42 114.804 129.646 114.04 127.176 111.526C124.138 108.433 122.335 107.572 118.895 107.572C114.603 107.572 113.591 109.43 113.581 117.327C113.578 119.728 113.825 121.705 114.225 122.486C114.582 123.183 115.025 125.067 115.209 126.672C115.393 128.278 115.96 130.389 116.47 131.363C116.979 132.336 118.185 134.927 119.149 137.119C120.114 139.312 121.475 142.003 122.175 143.099C123.301 144.863 123.65 145.092 125.202 145.091C126.167 145.09 127.687 144.644 128.579 144.101Z" fill="white"/>
</svg>
